<svg xmlns="http://www.w3.org/2000/svg" xmlns:xlink="http://www.w3.org/1999/xlink" width="61" height="61" viewBox="0 0 61 61"><defs><style>.a{fill:#fff;stroke:#707070;}.b{clip-path:url(#a);}.c{fill-rule:evenodd;fill:url(#b);}</style><clipPath id="a"><rect class="a" width="61" height="61" transform="translate(124.318 75.251)"/></clipPath><linearGradient id="b" x1="0.5" x2="0.5" y2="1" gradientUnits="objectBoundingBox"><stop offset="0" stop-color="#642d92"/><stop offset="1" stop-color="#2337b8"/><stop offset="1" stop-color="#121c5c"/></linearGradient></defs><g class="b" transform="translate(-124.318 -75.251)"><g transform="translate(125.786 79.61)"><g transform="translate(0 0)"><path class="c" d="M16.484,25.1h7.385V36.181c0,5,7.6,5,7.6,0V25.1H46.025V36.181c0,5,7.6,5,7.6,0V25.1h7.385a6.768,6.768,0,0,1,6.734,6.734V59.423a6.584,6.584,0,0,1-6.734,6.516H16.484A6.584,6.584,0,0,1,9.75,59.423V31.837A6.768,6.768,0,0,1,16.484,25.1Zm31.5,11.078a1.849,1.849,0,1,0,3.693,0V18.8a5.146,5.146,0,0,0-5.213-5.213H31.037A5.286,5.286,0,0,0,25.824,18.8V36.181a1.955,1.955,0,0,0,3.91,0V18.8c0-.869.434-1.521,1.3-1.521H46.459A1.485,1.485,0,0,1,47.98,18.8Z" transform="translate(-9.75 -13.591)"/></g></g></g></svg>