<svg xmlns="http://www.w3.org/2000/svg" width="47.963" height="43.616" viewBox="0 0 47.963 43.616"><defs><style>.a{fill:rgba(232,105,43,0.73);}</style></defs><path class="a" d="M-3613.032-7484.712H-3649a6,6,0,0,1-6-6v-3.6a14.291,14.291,0,0,1,4.216-10.172,14.294,14.294,0,0,1,10.174-4.215h1.036a19.725,19.725,0,0,0,8.556,2,19.646,19.646,0,0,0,8.556-2h1.036a14.294,14.294,0,0,1,10.174,4.215,14.291,14.291,0,0,1,4.216,10.172v3.6A6,6,0,0,1-3613.032-7484.712Zm-17.987-27.978a13.9,13.9,0,0,1-9.895-4.1,13.9,13.9,0,0,1-4.1-9.895,14.171,14.171,0,0,1,.1-1.648h27.786a14.173,14.173,0,0,1,.1,1.648,13.9,13.9,0,0,1-4.095,9.895A13.9,13.9,0,0,1-3631.018-7512.69Z" transform="translate(3655 7528.328)"/></svg>