<?xml version="1.0" encoding="utf-8"?>
<!-- Generator: Adobe Illustrator 24.1.3, SVG Export Plug-In . SVG Version: 6.00 Build 0)  -->
<svg version="1.1" id="Layer_1" xmlns="http://www.w3.org/2000/svg" xmlns:xlink="http://www.w3.org/1999/xlink" x="0px" y="0px"
	 viewBox="0 0 587.2 583.1" style="enable-background:new 0 0 587.2 583.1;" xml:space="preserve">
<style type="text/css">
	.st0{fill:#E7692B;}
</style>
<g>
	<g>
		<path class="st0" d="M333.3,406.9c-0.2,3-0.4,6.1-0.4,9.2c0,3,0.1,6,0.3,9c0.2-3.1,0.2-6.2,0.2-9.3
			C333.5,412.7,333.5,409.8,333.3,406.9z M165.8,248.6C63.7,248.6,0,324,0,415.7C0,508,62.4,582.7,166.4,582.7
			c54.7,0,98-20.6,126.8-53.6c-25.7-29.7-39.6-69.4-39.6-113.1c0-43.1,14.1-82.6,39.7-112.4C264,269.9,220.1,248.6,165.8,248.6z
			 M166.4,509.9c-57.9,0-87.1-45.5-87.1-94.3c0-48.1,29.9-94.9,87.1-94.9c53.3,0,87.1,46.8,87.1,94.9
			C253.6,464.4,224.3,509.9,166.4,509.9z"/>
		<path class="st0" d="M419.5,249c-54.1,0-97.3,21.1-126.1,54.7c24,27.7,38.2,63.8,40,103.2c3.5-44.7,33.2-85.7,86.8-85.7
			c53.3,0,87.1,46.8,87.1,94.9c0,48.8-29.3,94.3-87.1,94.3c-54.2,0-83.3-40-86.8-85.2c-1.9,40.1-15.8,76.4-40,104
			c28.7,33.2,71.9,54,126.8,54c104,0,167.1-74.8,167.1-167.1C587.2,324.4,521.5,249,419.5,249z"/>
		<path class="st0" d="M333,416c0,3,0.1,6,0.3,9v0.1c-1.9,40.1-15.8,76.4-40,104c-25.7-29.7-39.6-69.4-39.6-113.1
			c0-43.1,14.1-82.6,39.7-112.4c24,27.7,38.2,63.8,40,103.2C333.1,409.9,333,412.9,333,416z"/>
	</g>
	<g>
		<path class="st0" d="M293.6,100.1l-168.7,97.4c-19,11-43.2,4.5-54.2-14.5c-3.6-6.2-5.3-13.1-5.3-19.8c0-13.7,7.1-27.1,19.8-34.4
			l129.1-74.5l59.4-34.3c-26.4,15.3-26.4,53.4,0,68.7L293.6,100.1z"/>
		<path class="st0" d="M313.4,88.6l-19.8,11.5l-19.8-11.5c-26.4-15.3-26.4-53.4,0-68.7c6.1-3.6,13-5.3,19.8-5.3
			c6.8,0,13.7,1.7,19.8,5.3C339.9,35.2,339.9,73.3,313.4,88.6z"/>
		<path class="st0" d="M516.5,182.9c-11,19-35.2,25.5-54.2,14.5l-168.7-97.4l19.8-11.5c26.4-15.3,26.4-53.4,0-68.7l59.5,34.3
			l129,74.5C520.9,139.7,527.4,164,516.5,182.9z"/>
	</g>
</g>
</svg>
