<?xml version="1.0" encoding="utf-8"?>
<!-- Generator: Adobe Illustrator 24.3.0, SVG Export Plug-In . SVG Version: 6.00 Build 0)  -->
<svg version="1.1" id="Layer_1" xmlns="http://www.w3.org/2000/svg" xmlns:xlink="http://www.w3.org/1999/xlink" x="0px" y="0px"
	 viewBox="0 0 2000 2000" style="enable-background:new 0 0 2000 2000;" xml:space="preserve">
<style type="text/css">
	.st0{fill:#4B1C66;}
	.st1{fill:#E7692B;}
	.st2{fill:#AA431F;}
	.st3{fill:#FFFFFF;}
	.st4{fill:#606060;}
</style>
<g>
	<g>
		<path class="st1" d="M1039.75,1108.01c-0.25,3.04-0.37,6.08-0.37,9.15c0,3.01,0.12,5.99,0.34,8.97c0.15-3.1,0.21-6.21,0.21-9.34
			C1039.94,1113.85,1039.87,1110.93,1039.75,1108.01z M872.2,949.74c-102.08,0-165.8,75.42-165.8,167.06
			c0,92.35,62.42,167.09,166.44,167.09c54.68,0,98.03-20.64,126.84-53.64c-25.68-29.74-39.63-69.43-39.63-113.08
			c0-43.13,14.1-82.64,39.66-112.4C970.42,971.06,926.46,949.74,872.2,949.74z M872.85,1211.08c-57.88,0-87.12-45.5-87.12-94.28
			c0-48.11,29.92-94.89,87.12-94.89c53.3,0,87.12,46.79,87.12,94.89C959.97,1165.58,930.69,1211.08,872.85,1211.08z"/>
		<path class="st1" d="M1125.86,950.11c-54.07,0-97.35,21.14-126.14,54.65c24.02,27.71,38.19,63.78,40.03,103.25
			c3.53-44.73,33.18-85.74,86.75-85.74c53.3,0,87.12,46.79,87.12,94.89c0,48.78-29.28,94.28-87.12,94.28
			c-54.25,0-83.34-40-86.78-85.19c-1.91,40.09-15.85,76.37-40.03,103.99c28.66,33.21,71.95,54.01,126.81,54.01
			c104.02,0,167.09-74.77,167.09-167.09C1293.59,1025.5,1227.91,950.11,1125.86,950.11z"/>
		<path class="st1" d="M1039.38,1117.17c0,3.01,0.12,5.99,0.34,8.97v0.12c-1.91,40.09-15.85,76.37-40.03,103.99
			c-25.68-29.74-39.63-69.43-39.63-113.08c0-43.13,14.1-82.64,39.66-112.4c24.02,27.71,38.19,63.78,40.03,103.25
			C1039.51,1111.05,1039.38,1114.09,1039.38,1117.17z"/>
	</g>
	<g>
		<path class="st1" d="M1000,801.21l-168.69,97.38c-18.95,10.97-43.22,4.45-54.19-14.5c-3.59-6.24-5.31-13.06-5.31-19.75
			c0-13.73,7.13-27.06,19.85-34.41l129.06-74.53l59.44-34.35c-26.42,15.27-26.42,53.42,0,68.69L1000,801.21z"/>
		<path class="st1" d="M1019.85,789.75L1000,801.21l-19.85-11.46c-26.42-15.27-26.42-53.42,0-68.69c6.14-3.56,12.99-5.31,19.85-5.31
			c6.85,0,13.7,1.75,19.85,5.31C1046.3,736.33,1046.3,774.48,1019.85,789.75z"/>
		<path class="st1" d="M1222.88,884.09c-10.97,18.95-35.24,25.47-54.19,14.5L1000,801.21l19.85-11.46
			c26.45-15.27,26.45-53.42,0-68.69l59.47,34.35l129.03,74.5C1227.33,840.87,1233.81,865.11,1222.88,884.09z"/>
	</g>
</g>
</svg>
