<svg xmlns="http://www.w3.org/2000/svg" xmlns:xlink="http://www.w3.org/1999/xlink" width="91" height="91" viewBox="0 0 91 91"><defs><style>.a{fill:#fff;stroke:#707070;}.b{clip-path:url(#a);}.c{fill:url(#b);}</style><clipPath id="a"><rect class="a" width="91" height="91" transform="translate(18 57.405)"/></clipPath><linearGradient id="b" x1="0.5" x2="0.5" y2="1" gradientUnits="objectBoundingBox"><stop offset="0" stop-color="#642d92"/><stop offset="1" stop-color="#2337b8"/></linearGradient></defs><g class="b" transform="translate(-18 -57.405)"><g transform="translate(36.738 70.584)"><g transform="translate(0 0)"><path class="c" d="M38.989,57.659Z" transform="translate(-12.561 -8.062)"/><circle class="c" cx="5.648" cy="5.648" r="5.648" transform="translate(29.759)"/><path class="c" d="M45.451,26.9a6.354,6.354,0,0,1-4.924,6.154c2.824.29,5.72,1.448,7.168,3.91H48.2c1.448-2.317,4.2-3.548,7.168-3.837a6.23,6.23,0,0,1-4.851-6.154,6.37,6.37,0,0,1,5.286-6.227c-1.521-2.317-4.706-3.331-7.82-3.331-3.041,0-6.227,1.014-7.82,3.331A6.237,6.237,0,0,1,45.451,26.9Z" transform="translate(-12.651 -4.962)"/><circle class="c" cx="5.648" cy="5.648" r="5.648" transform="translate(12.019)"/><path class="c" d="M26.376,26.889a6.354,6.354,0,0,1-4.924,6.154c2.824.29,5.72,1.448,7.1,3.837h.434c1.448-2.317,4.2-3.62,7.241-3.91a6.23,6.23,0,0,1-4.851-6.154,6.364,6.364,0,0,1,5.213-6.227c-1.593-2.317-4.706-3.331-7.82-3.331-3.041,0-6.227,1.014-7.82,3.331A6.384,6.384,0,0,1,26.376,26.889Z" transform="translate(-11.171 -4.95)"/><path class="c" d="M52.168,27.221a5.64,5.64,0,0,0,5.575,5.648h0a5.648,5.648,0,1,0,0-11.3,2,2,0,0,0-.652.072A5.632,5.632,0,0,0,52.168,27.221Z" transform="translate(-13.576 -5.282)"/><path class="c" d="M57.556,34.988h0c-3.041,0-6.227,1.014-7.82,3.258a5.461,5.461,0,0,1,2.1.652A6.291,6.291,0,0,1,50.46,50.7c3.113.29,6.227,1.665,7.458,4.489h8.4V41.866C66.317,37.015,61.9,34.988,57.556,34.988Z" transform="translate(-13.389 -6.315)"/><path class="c" d="M19.394,32.8h.145a5.655,5.655,0,0,0,5.648-5.648,5.592,5.592,0,0,0-5.068-5.575h-.507a5.655,5.655,0,0,0-5.648,5.648A5.548,5.548,0,0,0,19.394,32.8Z" transform="translate(-10.633 -5.282)"/><path class="c" d="M26.284,50.621a6.23,6.23,0,0,1-4.851-6.154,6.447,6.447,0,0,1,3.475-5.648,5.461,5.461,0,0,1,2.1-.652c-1.593-2.317-4.706-3.258-7.82-3.258h-.072c-4.272,0-8.761,2.027-8.761,6.879V55.111h8.4C19.985,52.432,23.026,50.983,26.284,50.621Z" transform="translate(-10.355 -6.309)"/><path class="c" d="M48.275,39.224h-.362a.653.653,0,0,0-.362.072,5.6,5.6,0,0,0,0,11.006c.145,0,.217.072.362.072H49a5.58,5.58,0,0,0,0-11.15h-.724Z" transform="translate(-12.869 -6.642)"/><path class="c" d="M56.541,56.911c-.072-.145-.072-.217-.145-.362-1.376-2.679-4.562-3.837-7.82-3.91H47.128c-2.969.217-5.865,1.448-7.1,3.91-.072.145-.145.217-.145.362-.072.145-.072.217-.145.362a7.29,7.29,0,0,0-.362,2.245h0V72.84H57.048V59.517a6.942,6.942,0,0,0-.362-2.245C56.613,57.128,56.613,56.983,56.541,56.911Z" transform="translate(-12.591 -7.675)"/><path class="c" d="M28.856,39.224h-.507a5.585,5.585,0,0,0-.072,11.15h1.158A.653.653,0,0,0,29.8,50.3,5.585,5.585,0,0,0,29.653,39.3c-.145,0-.217-.072-.362-.072h-.434Z" transform="translate(-11.334 -6.642)"/><path class="c" d="M36.609,56.917c-.072-.145-.072-.217-.145-.362-1.231-2.462-4.055-3.62-7.1-3.837H27.848c-3.186.072-6.444,1.231-7.82,3.91-.072.145-.145.217-.145.362-.072.145-.072.217-.145.362a7.29,7.29,0,0,0-.362,2.245V72.918H37.044V59.523a6.942,6.942,0,0,0-.362-2.245A.318.318,0,0,0,36.609,56.917Z" transform="translate(-11.05 -7.681)"/></g></g></g></svg>