<svg xmlns="http://www.w3.org/2000/svg" width="52.383" height="49.763" viewBox="0 0 52.383 49.763"><defs><style>.a{fill:#ee9164;}</style></defs><g transform="translate(-0.383 -1)"><g transform="translate(1 1)"><path class="a" d="M13.047,272.723a.924.924,0,0,0-.921.928v7.936L7.772,285.94a.924.924,0,0,0,.655,1.576h3.7v10.167a.924.924,0,0,0,.921.921h5.547a.924.924,0,0,0,.928-.921v-6.469h3.691v6.469a.924.924,0,0,0,.928.921h5.547a.924.924,0,0,0,.921-.921V287.516h3.7a.925.925,0,0,0,.655-1.576L22.019,273a.924.924,0,0,0-1.3,0l-3.043,3.043v-2.388a.925.925,0,0,0-.928-.928Z" transform="translate(16.533 -248.842)"/><path class="a" d="M-3084.492-7596.4h-22.792a4.338,4.338,0,0,1-4.333-4.333v-3.756a12.146,12.146,0,0,1,12.134-12.131h1.508a15.745,15.745,0,0,0,6.581,1.444,15.689,15.689,0,0,0,6.581-1.444h.322v7.16l-4.759,4.758a1.012,1.012,0,0,0-.217,1.1,1.015,1.015,0,0,0,.934.624h4.041v6.576Zm-6.9-23.11a11.48,11.48,0,0,1-8.172-3.384,11.477,11.477,0,0,1-3.385-8.17,11.478,11.478,0,0,1,3.385-8.171,11.479,11.479,0,0,1,8.172-3.385,11.477,11.477,0,0,1,8.17,3.385,11.48,11.48,0,0,1,3.384,8.171,11.477,11.477,0,0,1-3.384,8.17A11.477,11.477,0,0,1-3091.4-7619.509Z" transform="translate(3111 7642.619)"/></g></g></svg>