<?xml version="1.0" encoding="utf-8"?>
<!-- Generator: Adobe Illustrator 24.1.3, SVG Export Plug-In . SVG Version: 6.00 Build 0)  -->
<svg version="1.1" id="Layer_1" xmlns="http://www.w3.org/2000/svg" xmlns:xlink="http://www.w3.org/1999/xlink" x="0px" y="0px"
	 viewBox="0 0 1037.7 538.5" style="enable-background:new 0 0 1037.7 538.5;" xml:space="preserve">
<style type="text/css">
	.st0{fill:#E7692B;}
</style>
<g>
	<path class="st0" d="M69.6,227.8l5.5,35.1c23.4-37.6,54.8-43.1,85.6-43.1c31.4,0,61.6,12.3,78.2,28.9L205,314
		c-15.4-12.9-29.6-19.7-54.2-19.7c-39.4,0-75.7,20.9-75.7,77v160.1H0V227.8H69.6z"/>
	<g>
		<path class="st0" d="M539.3,371.5c-0.2,2.9-0.3,5.8-0.3,8.7c0,2.8,0.1,5.7,0.3,8.5c0.1-2.9,0.2-5.9,0.2-8.8
			C539.5,377,539.5,374.3,539.3,371.5z M380.6,221.6c-96.7,0-157,71.4-157,158.2c0,87.5,59.1,158.2,157.6,158.2
			c51.8,0,92.8-19.6,120.1-50.8c-24.3-28.2-37.5-65.8-37.5-107.1c0-40.8,13.4-78.3,37.6-106.5C473.7,241.8,432,221.6,380.6,221.6z
			 M381.3,469.1c-54.8,0-82.5-43.1-82.5-89.3c0-45.6,28.3-89.9,82.5-89.9c50.5,0,82.5,44.3,82.5,89.9
			C463.8,426,436,469.1,381.3,469.1z"/>
		<path class="st0" d="M620.9,222c-51.2,0-92.2,20-119.5,51.8c22.8,26.2,36.2,60.4,37.9,97.8c3.3-42.4,31.4-81.2,82.2-81.2
			c50.5,0,82.5,44.3,82.5,89.9c0,46.2-27.7,89.3-82.5,89.3c-51.4,0-78.9-37.9-82.2-80.7c-1.8,38-15,72.3-37.9,98.5
			c27.2,31.4,68.1,51.2,120.1,51.2c98.5,0,158.2-70.8,158.2-158.2C779.8,293.4,717.5,222,620.9,222z"/>
		<path class="st0" d="M539,380.2c0,2.8,0.1,5.7,0.3,8.5v0.1c-1.8,38-15,72.3-37.9,98.5c-24.3-28.2-37.5-65.8-37.5-107.1
			c0-40.8,13.4-78.3,37.6-106.5c22.8,26.2,36.2,60.4,37.9,97.8C539.1,374.4,539,377.3,539,380.2z"/>
	</g>
	<path class="st0" d="M843.1,531.7V298.3h-56.7v-65.9h56.7v-20.3c0-81.3,54.8-118.8,115.8-118.8c26.5,0,54.2,8.6,78.8,24.6l-27.7,56
		c-16-10.5-30.8-16-46.2-16c-25.9,0-45.6,17.2-45.6,54.2v20.3h89.3v65.9h-89.3v233.4L843.1,531.7L843.1,531.7z"/>
	<g>
		<path class="st0" d="M501.7,80.9l-159.8,92.2c-18,10.4-40.9,4.2-51.3-13.7c-3.4-5.9-5-12.4-5-18.7c0-13,6.8-25.6,18.8-32.6
			l122.2-70.6L482.9,5c-25,14.5-25,50.6,0,65.1L501.7,80.9z"/>
		<path class="st0" d="M520.5,70.1l-18.8,10.8l-18.8-10.8c-25-14.5-25-50.6,0-65.1c5.8-3.4,12.3-5,18.8-5s13,1.7,18.8,5
			C545.5,19.5,545.5,55.6,520.5,70.1z"/>
		<path class="st0" d="M712.8,159.4c-10.4,18-33.4,24.1-51.3,13.7L501.7,80.9l18.8-10.8c25-14.5,25-50.6,0-65.1l56.3,32.5L699,108.1
			C717,118.5,723.1,141.5,712.8,159.4z"/>
	</g>
</g>
</svg>
