<svg xmlns="http://www.w3.org/2000/svg" xmlns:xlink="http://www.w3.org/1999/xlink" width="63" height="63" viewBox="0 0 63 63"><defs><style>.a{fill:#fff;stroke:#707070;}.b{clip-path:url(#a);}.c{fill:url(#b);}</style><clipPath id="a"><rect class="a" width="63" height="63" transform="translate(28 68.468)"/></clipPath><linearGradient id="b" x1="0.5" x2="0.5" y2="1" gradientUnits="objectBoundingBox"><stop offset="0" stop-color="#642d92"/><stop offset="1" stop-color="#2337b8"/></linearGradient></defs><g class="b" transform="translate(-28 -68.468)"><g transform="translate(30.653 70.653)"><g transform="translate(0 0)"><path class="c" d="M57.42,46.01H35.244a.93.93,0,0,0,0,1.86H57.42a.93.93,0,0,0,0-1.86Z" transform="translate(-12.677 -12.139)"/><path class="c" d="M30.5,1.238A29.263,29.263,0,1,0,59.764,30.5,29.3,29.3,0,0,0,30.5,1.238ZM21.042,17.494a3.3,3.3,0,0,0-3.291,3.292V31.863c0,.021-.005.042-.006.063a1.882,1.882,0,0,1-3.757,0c0-.021,0-.042-.006-.062V9.97H36.669v9.947H24.217A3.3,3.3,0,0,0,21.042,17.494ZM47.019,50.3a.827.827,0,0,1-.047.277c-.043.121-.08.22-.112.3l-.921-1.347a.7.7,0,0,0-1.157,0l-1,1.466-1-1.466a.7.7,0,0,0-1.157,0l-1,1.466-1-1.466a.7.7,0,0,0-1.157,0l-1,1.466-1-1.466a.7.7,0,0,0-1.157,0l-1,1.466-1.044-1.526a.7.7,0,0,0-1.157,0l-1,1.466-.941-1.377a.7.7,0,0,0-1.157,0l-1,1.467-1-1.466a.7.7,0,0,0-1.157,0l-.989,1.444c-.072-.084-.17-.222-.248-.33s-.16-.225-.255-.35V21.335H44.273A2.744,2.744,0,0,1,47.02,24.07Z" transform="translate(-1.238 -1.238)"/><path class="c" d="M57.42,52.786H35.244a.93.93,0,0,0,0,1.86H57.42a.93.93,0,0,0,0-1.86Z" transform="translate(-12.677 -13.788)"/><path class="c" d="M57.42,39.235H35.244a.93.93,0,0,0,0,1.86H57.42a.93.93,0,0,0,0-1.86Z" transform="translate(-12.677 -10.489)"/><path class="c" d="M57.42,32.459H35.244a.93.93,0,0,0,0,1.86H57.42a.93.93,0,0,0,0-1.86Z" transform="translate(-12.677 -8.839)"/></g></g></g></svg>